<svg xmlns="http://www.w3.org/2000/svg" x="0px" y="0px" width="100" height="100" viewBox="0,0,256,256">
<defs><linearGradient x1="34.5" y1="37" x2="34.5" y2="43" gradientUnits="userSpaceOnUse" id="color-1_WXDF19y32Scg_gr1"><stop offset="0" stop-color="#6dff72"></stop><stop offset="1" stop-color="#e6abff"></stop></linearGradient><linearGradient x1="45" y1="21" x2="45" y2="59" gradientUnits="userSpaceOnUse" id="color-2_WXDF19y32Scg_gr2"><stop offset="0" stop-color="#6dff72"></stop><stop offset="1" stop-color="#e6abff"></stop></linearGradient><linearGradient x1="43.5" y1="21" x2="43.5" y2="59" gradientUnits="userSpaceOnUse" id="color-3_WXDF19y32Scg_gr3"><stop offset="0" stop-color="#1a6dff"></stop><stop offset="1" stop-color="#c822ff"></stop></linearGradient><linearGradient x1="26.5" y1="12" x2="26.5" y2="38" gradientUnits="userSpaceOnUse" id="color-4_WXDF19y32Scg_gr4"><stop offset="0" stop-color="#6dff72"></stop><stop offset="1" stop-color="#e6abff"></stop></linearGradient><linearGradient x1="26" y1="9" x2="26" y2="37" gradientUnits="userSpaceOnUse" id="color-5_WXDF19y32Scg_gr5"><stop offset="0" stop-color="#1a6dff"></stop><stop offset="1" stop-color="#c822ff"></stop></linearGradient></defs><g fill="none" fill-rule="nonzero" stroke="none" stroke-width="1" stroke-linecap="butt" stroke-linejoin="miter" stroke-miterlimit="10" stroke-dasharray="" stroke-dashoffset="0" font-family="none" font-weight="none" font-size="none" text-anchor="none" style="mix-blend-mode: normal"><g transform="scale(4,4)"><path d="M35,38v0.333l-2,-1.333v6l3,-4v-1z" fill="url(#color-1_WXDF19y32Scg_gr1)"></path><path d="M61,21l-2,4l-6,3h-5.75l9.75,-3h-12l-1,3h-1l-1,2h1l1,-1l1.995,-0.614l3.173,0.614h1.832l-10,5l-15,25l3,-1l3,-5l3,-1l8,-15l19,-9l2,-6h-1v-1z" fill="url(#color-2_WXDF19y32Scg_gr2)"></path><path d="M60,21l-3,1h-15l-6,14l-3,1l1,2h1v-1h1v1h-1v1h-1.55l-8.45,19l2,-1l4,-6l3,-1l8,-15l15,-7h-7.832l-3.173,-0.614l-1.995,0.614l-1,1h-1l1,-2h1l1,-3h12l-9.75,3h10.75l2,-1l2,-6z" fill="url(#color-3_WXDF19y32Scg_gr3)"></path><path d="M33,31l1,1h2v2l-5,3h-19l-7,1l-4,-4h2l29,-1zM52,14l-4,2c-1.955,0 -4,-2 -9,2l-20.067,13h6.067l5,1h-12.533l-1.467,1l-4,-1v-1h-1v-1h3v0.615l31,-18.615l4,1zM13,31.308l0.444,-0.308h-0.444zM15,25l-11.415,6.415c0.934,0.386 1.935,0.585 2.946,0.585h4.469v-1h-4.684z" fill="url(#color-4_WXDF19y32Scg_gr4)"></path><g fill="url(#color-5_WXDF19y32Scg_gr5)"><path d="M46,9l-2,1h-2l-27,15l-8.684,6h4.684v-1h3v1h1v1h-1v-1h-1v1h-1v-1h-1v1h-4.469c-1.011,0 -2.012,-0.199 -2.946,-0.585l0.033,-0.02c-0.553,-0.013 -1.106,-0.139 -1.618,-0.395l-2,1l5,5l7,-1h18l4,-3v-2h-2l-2,-1c-2,1 -4.092,0.869 -5,1l5,1h-14v-1l27,-17l4,1l5,-3z"></path></g></g></g>
</svg>