<svg t="1752929558159" class="icon" viewBox="0 0 1024 1024" version="1.1" xmlns="http://www.w3.org/2000/svg" p-id="1393" width="200" height="200"><path d="M822.93 301.13S866 491 769 717c0 0-114 262-355.24 211.34 0 0-250.25-58.59-229.2-279.67 0 0 6.36-89.8 57.15-93.52 0 0 44.73-4.34 50.04 40.66 0 0 1.37 36.66 33.81 39.33 0 0 49.9 3.3 67.7-76.85 0 0 20.78-83.47-17.1-92.81 0 0-19.03-6.25-31.51 20.4 0 0-17.24 44.01-58.02 45.28 0 0-106.04 1.03-51.75-170.73 0 0 32.48-118.63 157.7-87.46 0 0 52.52 10.75 85.88 50.43 4.47 5.32 13.18 3 14.83-3.75 10.52-43.08 36.93-150.22 45.8-176.6 0 0 23.64-107.34 89.74-94.02 0 0 53.22 5.96 52.04 65.99-0.09 4.5 5.01 7.15 8.6 4.43 9.89-7.49 27.6-14.95 54.79-6.27 0 0 36.56 14.16 26.33 70.45 0 0-2.18 39.73-9.65 77.59-0.94 4.76 4.42 8.18 8.39 5.39 14.78-10.42 39.66-17.79 53.59 34.51z" fill="#3EC13E" p-id="1394"></path><path d="M474.54 947.32c-20.77 0-41.91-2.25-63.35-6.75-6.76-1.42-11.08-8.05-9.66-14.8 1.42-6.76 8.05-11.08 14.8-9.66 52.46 11.02 102.84 7.35 149.76-10.9 37.78-14.69 73.56-38.85 106.35-71.8 56.53-56.81 84.82-120.76 85.1-121.4 2.76-6.32 10.13-9.22 16.45-6.46 6.33 2.76 9.22 10.11 6.47 16.44-1.2 2.76-30.12 68.34-89.74 128.48-35.29 35.6-74.03 61.8-115.13 77.86-32.36 12.65-66.18 18.99-101.05 18.99zM616.92 386.31c-1.34 0-2.7-0.22-4.03-0.67-6.53-2.23-10.03-9.33-7.8-15.86 41.48-121.8 55.15-189.83 55.28-190.5 1.34-6.77 7.92-11.18 14.69-9.84 6.77 1.34 11.18 7.91 9.84 14.68-0.55 2.8-14.05 70.11-56.14 193.72-1.77 5.2-6.63 8.47-11.83 8.47zM729.12 457.47c-1.14 0-2.3-0.16-3.45-0.49-6.64-1.9-10.47-8.83-8.57-15.46 22.2-77.39 26.22-139.72 26.26-140.34 0.42-6.89 6.35-12.14 13.24-11.71 6.89 0.42 12.13 6.34 11.72 13.23-0.16 2.64-4.18 65.52-27.18 145.71-1.57 5.48-6.57 9.06-12.01 9.06z" p-id="1395"></path><path d="M532.84419 686.597446a74.3 111.44 3 1 0 11.664638-222.574551 74.3 111.44 3 1 0-11.664638 222.574551Z" fill="#FFFFFF" p-id="1396"></path><path d="M588.26 529.22c8.46 0.44 16.17 4.43 22.55 10.98 2.37 12.25 3.33 25.42 2.61 39.09-1.75 33.29-13.06 62.64-29.57 82.23-0.84 0.03-1.69 0.02-2.54-0.02-24.35-1.28-42.54-31.92-40.62-68.45 1.92-36.53 23.21-65.1 47.56-63.82z" p-id="1397"></path><path d="M700.205522 689.683896a63.14 94.72 3 1 0 9.914523-189.180379 63.14 94.72 3 1 0-9.914523 189.180379Z" fill="#FFFFFF" p-id="1398"></path><path d="M747.33 555.93c7.19 0.38 13.74 3.77 19.17 9.33 2.01 10.41 2.83 21.61 2.22 33.22-1.48 28.29-11.1 53.24-25.13 69.88-0.71 0.02-1.43 0.02-2.15-0.02-20.7-1.09-36.15-27.13-34.52-58.17 1.63-31.04 19.73-55.33 40.42-54.24zM538.45 713.18c-3.77 0-7.49-1.7-9.95-4.93-14.63-19.22-33.18-28.52-55.13-27.66-17.26 0.68-30.46 7.52-30.59 7.58-6.08 3.26-13.64 0.96-16.9-5.13-3.26-6.09-0.95-13.67 5.14-16.93 0.71-0.38 17.57-9.29 40.22-10.45 21.36-1.1 52.08 4.51 77.15 37.44 4.18 5.49 3.12 13.34-2.37 17.52a12.452 12.452 0 0 1-7.56 2.56zM613.32 813.98c-1.04 0-2.08-0.03-3.13-0.1-14.71-0.96-27.99-8.46-37.39-21.1-8.94-12.03-13.29-27.4-12.25-43.29 0.45-6.89 6.4-12.11 13.29-11.66 6.89 0.45 12.11 6.4 11.66 13.29-0.65 9.97 1.96 19.46 7.37 26.74 4.95 6.66 11.68 10.59 18.96 11.07 15.82 1.03 29.74-14.23 31.04-34.04 0.45-6.89 6.4-12.11 13.29-11.66 6.89 0.45 12.11 6.4 11.66 13.29-2.12 32.37-26.24 57.46-54.49 57.46z" p-id="1399"></path></svg>